# xmcd
#
# Track frame offsets:
#	150
#	15337
#	32730
#	45177
#	55607
#	70492
#	79405
#	94100
#	107650
#	121682
#	138807
#
# Disc length: 2082
#
# Revision: 3
# Processed by: cddbd v1.5.1PL0 Copyright (c) Steve Scherf et al.
# Submitted via: audiograbber 1.80.04
# Normalized: r1:DSETVAR1,TDELIM( - ),TSWAP
#
DISCID=7e08200b
DTITLE=Various Artist - Country Holiday Hits
DYEAR=2000
DGENRE=Country
TTITLE0=Collin Raye - Winter Wonderland
TTITLE1=Doug Stone - A Christmas Card
TTITLE2=Roy Orbison - Pretty Paper
TTITLE3=Tanya Tucker - Away In A Manger
TTITLE4=Joe Diffie - Leroy, The Redneck Reindeer
TTITLE5=Ricochet - Let It Snow,Let It Snow,Let It Snow
TTITLE6=Joe Diffie - Wrap Me In Your Love
TTITLE7=Ronnie Milsap - Silver Bells
TTITLE8=Lorrie Morgan - Sleigh Ride
TTITLE9=Restless Heart - Little Drummer Boy
TTITLE10=Dolly Parton - Hard Candy Christmas
EXTD=
EXTT0=
EXTT1=
EXTT2=
EXTT3=
EXTT4=
EXTT5=
EXTT6=
EXTT7=
EXTT8=
EXTT9=
EXTT10=
PLAYORDER=
